<mxfile host="app.diagrams.net" modified="2021-01-24T14:29:32.710Z" agent="5.0 (Windows)" etag="riy1YI1Qm3joymJxBvpQ" version="14.1.8" type="github">
  <diagram id="6b99Qblq1uOMe81oencH" name="Page-1">
    <mxGraphModel dx="1846" dy="1124" grid="0" gridSize="10" guides="0" tooltips="1" connect="0" arrows="0" fold="1" page="1" pageScale="1" pageWidth="850" pageHeight="1100" math="0" shadow="0">
      <root>
        <mxCell id="0" />
        <mxCell id="1" parent="0" />
        <mxCell id="YM7sdpSk1il3TAfAZ3iK-1" value="Record stored in DB" style="swimlane;" vertex="1" parent="1">
          <mxGeometry x="40" y="40" width="170" height="300" as="geometry" />
        </mxCell>
        <mxCell id="YM7sdpSk1il3TAfAZ3iK-2" value="&lt;div align=&quot;left&quot;&gt;&lt;font face=&quot;Courier New&quot;&gt;PrimaryName:&lt;br&gt;&lt;/font&gt;&lt;/div&gt;&lt;div align=&quot;left&quot;&gt;&lt;font face=&quot;Courier New&quot;&gt;&lt;span style=&quot;background-color: rgb(255 , 255 , 0)&quot;&gt;string[]&lt;/span&gt; FirstName&lt;br&gt;&lt;/font&gt;&lt;/div&gt;&lt;div align=&quot;left&quot;&gt;&lt;font face=&quot;Courier New&quot;&gt;&amp;nbsp;[0]&quot;ABDUL&quot;&lt;/font&gt;&lt;/div&gt;&lt;div align=&quot;left&quot;&gt;&lt;font face=&quot;Courier New&quot;&gt;&amp;nbsp;[1]&quot;ACHMED&quot;&lt;/font&gt;&lt;/div&gt;&lt;div align=&quot;left&quot;&gt;&lt;font face=&quot;Courier New&quot;&gt;&amp;nbsp;&lt;/font&gt;&lt;font face=&quot;Courier New&quot;&gt;&lt;font face=&quot;Courier New&quot;&gt;[2]&lt;/font&gt;&quot;ALI&quot;&lt;br&gt;&lt;/font&gt;&lt;/div&gt;&lt;div align=&quot;left&quot;&gt;&lt;font face=&quot;Courier New&quot;&gt;&lt;span style=&quot;background-color: rgb(255 , 255 , 0)&quot;&gt;string[]&lt;/span&gt; LastName &lt;br&gt;&lt;/font&gt;&lt;/div&gt;&lt;div align=&quot;left&quot;&gt;&lt;font face=&quot;Courier New&quot;&gt;&amp;nbsp;&lt;/font&gt;&lt;font face=&quot;Courier New&quot;&gt;&lt;font face=&quot;Courier New&quot;&gt;[0]&lt;/font&gt;&quot;AL&quot;&lt;/font&gt;&lt;/div&gt;&lt;div align=&quot;left&quot;&gt;&lt;font face=&quot;Courier New&quot;&gt;&amp;nbsp;&lt;/font&gt;&lt;font face=&quot;Courier New&quot;&gt;&lt;font face=&quot;Courier New&quot;&gt;[1]&lt;/font&gt;&quot;ASSAR&quot;&lt;/font&gt;&lt;/div&gt;&lt;div align=&quot;left&quot;&gt;&lt;font face=&quot;Courier New&quot;&gt;Alias[] aliases&lt;/font&gt;&lt;/div&gt;&lt;div align=&quot;left&quot;&gt;&lt;font face=&quot;Courier New&quot;&gt;&amp;nbsp;[0]Alias&lt;br&gt;&lt;/font&gt;&lt;/div&gt;&lt;div align=&quot;left&quot;&gt;&lt;font face=&quot;Courier New&quot;&gt;&amp;nbsp; &lt;span style=&quot;background-color: rgb(255 , 255 , 0)&quot;&gt;string[]&lt;/span&gt; FirstName&lt;br&gt;&lt;/font&gt;&lt;/div&gt;&lt;div align=&quot;left&quot;&gt;&lt;font face=&quot;Courier New&quot;&gt;&amp;nbsp;&amp;nbsp; &lt;/font&gt;&lt;font face=&quot;Courier New&quot;&gt;&lt;font face=&quot;Courier New&quot;&gt;[0]&lt;/font&gt;&quot;ABDUL&quot;&lt;/font&gt;&lt;/div&gt;&lt;div align=&quot;left&quot;&gt;&lt;font face=&quot;Courier New&quot;&gt;&amp;nbsp;&amp;nbsp; &lt;/font&gt;&lt;font face=&quot;Courier New&quot;&gt;&lt;font face=&quot;Courier New&quot;&gt;[1]&lt;/font&gt;&quot;AHMED&quot;&lt;/font&gt;&lt;/div&gt;&lt;div align=&quot;left&quot;&gt;&lt;font face=&quot;Courier New&quot;&gt;&amp;nbsp; &lt;span style=&quot;background-color: rgb(255 , 255 , 0)&quot;&gt;string[]&lt;/span&gt; LastName&lt;br&gt;&lt;/font&gt;&lt;/div&gt;&lt;div align=&quot;left&quot;&gt;&lt;font face=&quot;Courier New&quot;&gt;&amp;nbsp;&amp;nbsp; &lt;/font&gt;&lt;font face=&quot;Courier New&quot;&gt;&lt;font face=&quot;Courier New&quot;&gt;[0]&lt;/font&gt;&quot;ASSAR&quot;&lt;br&gt;&lt;/font&gt;&lt;/div&gt;&lt;div align=&quot;left&quot;&gt;&lt;font face=&quot;Courier New&quot;&gt;&amp;nbsp;&lt;/font&gt;&lt;font face=&quot;Courier New&quot;&gt;&lt;font face=&quot;Courier New&quot;&gt;[1]&lt;/font&gt;Alias&lt;br&gt;&lt;/font&gt;&lt;/div&gt;&lt;div align=&quot;left&quot;&gt;&lt;font face=&quot;Courier New&quot;&gt;&amp;nbsp;&amp;nbsp; :&lt;/font&gt;&lt;/div&gt;&lt;div align=&quot;left&quot;&gt;&lt;font face=&quot;Courier New&quot;&gt;&amp;nbsp;&amp;nbsp; &lt;br&gt;&lt;/font&gt;&lt;/div&gt;" style="text;html=1;align=left;verticalAlign=middle;resizable=0;points=[];autosize=1;" vertex="1" parent="YM7sdpSk1il3TAfAZ3iK-1">
          <mxGeometry x="10" y="31" width="154" height="268" as="geometry" />
        </mxCell>
        <mxCell id="YM7sdpSk1il3TAfAZ3iK-3" value="Word Index" style="swimlane;" vertex="1" parent="1">
          <mxGeometry x="590" y="40" width="165" height="300" as="geometry" />
        </mxCell>
        <mxCell id="YM7sdpSk1il3TAfAZ3iK-4" value="&lt;div&gt;&lt;font face=&quot;Courier New&quot;&gt;string[] WordIndex:&lt;br&gt;&lt;/font&gt;&lt;/div&gt;&lt;div&gt;&lt;font face=&quot;Courier New&quot;&gt;[0]&quot;ABDUL&quot;&lt;/font&gt;&lt;/div&gt;&lt;div align=&quot;left&quot;&gt;&lt;font face=&quot;Courier New&quot;&gt;&lt;font face=&quot;Courier New&quot;&gt;[1]&lt;/font&gt;&quot;ACHMED&quot;&lt;/font&gt;&lt;/div&gt;&lt;div align=&quot;left&quot;&gt;&lt;font face=&quot;Courier New&quot;&gt;&lt;font face=&quot;Courier New&quot;&gt;[2]&lt;/font&gt;&quot;AHMED&quot;&lt;/font&gt;&lt;/div&gt;&lt;div align=&quot;left&quot;&gt;&lt;font face=&quot;Courier New&quot;&gt;&lt;font face=&quot;Courier New&quot;&gt;[3]&lt;/font&gt;&quot;ALI&quot;&lt;br&gt;&lt;/font&gt;&lt;/div&gt;&lt;font face=&quot;Courier New&quot;&gt;&lt;font face=&quot;Courier New&quot;&gt;[4]&lt;/font&gt;&quot;AL&quot;&lt;/font&gt;&lt;div align=&quot;left&quot;&gt;&lt;font face=&quot;Courier New&quot;&gt;&lt;font face=&quot;Courier New&quot;&gt;[5]&lt;/font&gt;&quot;ASSAR&quot;&lt;/font&gt;&lt;/div&gt;&lt;div align=&quot;left&quot;&gt;&lt;font face=&quot;Courier New&quot;&gt;:&lt;/font&gt;&lt;/div&gt;&lt;div align=&quot;left&quot;&gt;&lt;font face=&quot;Courier New&quot;&gt;&lt;br&gt;&lt;/font&gt;&lt;/div&gt;" style="text;html=1;align=left;verticalAlign=middle;resizable=0;points=[];autosize=1;" vertex="1" parent="YM7sdpSk1il3TAfAZ3iK-3">
          <mxGeometry x="7.5" y="32" width="147" height="136" as="geometry" />
        </mxCell>
        <mxCell id="YM7sdpSk1il3TAfAZ3iK-9" value="Record in Memory" style="swimlane;" vertex="1" parent="1">
          <mxGeometry x="290" y="40" width="170" height="300" as="geometry" />
        </mxCell>
        <mxCell id="YM7sdpSk1il3TAfAZ3iK-10" value="&lt;div align=&quot;left&quot;&gt;&lt;font face=&quot;Courier New&quot;&gt;PrimaryName:&lt;br&gt;&lt;/font&gt;&lt;/div&gt;&lt;div align=&quot;left&quot;&gt;&lt;font face=&quot;Courier New&quot;&gt;&lt;span style=&quot;background-color: rgb(51 , 255 , 51)&quot;&gt;int[]&lt;/span&gt; FirstName&lt;br&gt;&lt;/font&gt;&lt;/div&gt;&lt;div align=&quot;left&quot;&gt;&lt;font face=&quot;Courier New&quot;&gt;&amp;nbsp;[0] 0&lt;br&gt;&lt;/font&gt;&lt;/div&gt;&lt;div align=&quot;left&quot;&gt;&lt;font face=&quot;Courier New&quot;&gt;&amp;nbsp;[1] 1&lt;br&gt;&lt;/font&gt;&lt;/div&gt;&lt;div align=&quot;left&quot;&gt;&lt;font face=&quot;Courier New&quot;&gt;&amp;nbsp;&lt;/font&gt;&lt;font face=&quot;Courier New&quot;&gt;&lt;font face=&quot;Courier New&quot;&gt;[2]&lt;/font&gt; 3&lt;br&gt;&lt;/font&gt;&lt;/div&gt;&lt;div align=&quot;left&quot;&gt;&lt;font face=&quot;Courier New&quot;&gt;&lt;span style=&quot;background-color: rgb(51 , 255 , 51)&quot;&gt;int[]&lt;/span&gt; LastName &lt;br&gt;&lt;/font&gt;&lt;/div&gt;&lt;div align=&quot;left&quot;&gt;&lt;font face=&quot;Courier New&quot;&gt;&amp;nbsp;&lt;/font&gt;&lt;font face=&quot;Courier New&quot;&gt;&lt;font face=&quot;Courier New&quot;&gt;[0]&lt;/font&gt; 4&lt;/font&gt;&lt;/div&gt;&lt;div align=&quot;left&quot;&gt;&lt;font face=&quot;Courier New&quot;&gt;&amp;nbsp;&lt;/font&gt;&lt;font face=&quot;Courier New&quot;&gt;&lt;font face=&quot;Courier New&quot;&gt;[1]&lt;/font&gt; 5&lt;br&gt;&lt;/font&gt;&lt;/div&gt;&lt;div align=&quot;left&quot;&gt;&lt;font face=&quot;Courier New&quot;&gt;Alias[] aliases&lt;/font&gt;&lt;/div&gt;&lt;div align=&quot;left&quot;&gt;&lt;font face=&quot;Courier New&quot;&gt;&amp;nbsp;[0]Alias&lt;br&gt;&lt;/font&gt;&lt;/div&gt;&lt;div align=&quot;left&quot;&gt;&lt;font face=&quot;Courier New&quot;&gt;&amp;nbsp; &lt;span style=&quot;background-color: rgb(51 , 255 , 51)&quot;&gt;int[]&lt;/span&gt; FirstName&lt;br&gt;&lt;/font&gt;&lt;/div&gt;&lt;div align=&quot;left&quot;&gt;&lt;font face=&quot;Courier New&quot;&gt;&amp;nbsp;&amp;nbsp; &lt;/font&gt;&lt;font face=&quot;Courier New&quot;&gt;&lt;font face=&quot;Courier New&quot;&gt;[0] &lt;/font&gt;0&lt;/font&gt;&lt;/div&gt;&lt;div align=&quot;left&quot;&gt;&lt;font face=&quot;Courier New&quot;&gt;&amp;nbsp;&amp;nbsp; &lt;/font&gt;&lt;font face=&quot;Courier New&quot;&gt;&lt;font face=&quot;Courier New&quot;&gt;[1]&lt;/font&gt; 2&lt;/font&gt;&lt;/div&gt;&lt;div align=&quot;left&quot;&gt;&lt;font face=&quot;Courier New&quot;&gt;&amp;nbsp; &lt;span style=&quot;background-color: rgb(51 , 255 , 51)&quot;&gt;int[]&lt;/span&gt; LastName&lt;br&gt;&lt;/font&gt;&lt;/div&gt;&lt;div align=&quot;left&quot;&gt;&lt;font face=&quot;Courier New&quot;&gt;&amp;nbsp;&amp;nbsp; &lt;/font&gt;&lt;font face=&quot;Courier New&quot;&gt;&lt;font face=&quot;Courier New&quot;&gt;[0]&lt;/font&gt; 5&lt;br&gt;&lt;/font&gt;&lt;/div&gt;&lt;div align=&quot;left&quot;&gt;&lt;font face=&quot;Courier New&quot;&gt;&amp;nbsp;&lt;/font&gt;&lt;font face=&quot;Courier New&quot;&gt;&lt;font face=&quot;Courier New&quot;&gt;[1]&lt;/font&gt;Alias&lt;br&gt;&lt;/font&gt;&lt;/div&gt;&lt;div align=&quot;left&quot;&gt;&lt;font face=&quot;Courier New&quot;&gt;&amp;nbsp;&amp;nbsp; :&lt;/font&gt;&lt;/div&gt;&lt;div align=&quot;left&quot;&gt;&lt;font face=&quot;Courier New&quot;&gt;&amp;nbsp;&amp;nbsp; &lt;br&gt;&lt;/font&gt;&lt;/div&gt;" style="text;html=1;align=left;verticalAlign=middle;resizable=0;points=[];autosize=1;" vertex="1" parent="YM7sdpSk1il3TAfAZ3iK-9">
          <mxGeometry x="10" y="31" width="132" height="268" as="geometry" />
        </mxCell>
        <mxCell id="YM7sdpSk1il3TAfAZ3iK-14" value="" style="html=1;shadow=0;dashed=0;align=center;verticalAlign=middle;shape=mxgraph.arrows2.arrow;dy=0.6;dx=40;notch=0;" vertex="1" parent="1">
          <mxGeometry x="220" y="165" width="60" height="50" as="geometry" />
        </mxCell>
        <mxCell id="YM7sdpSk1il3TAfAZ3iK-24" style="edgeStyle=orthogonalEdgeStyle;rounded=0;orthogonalLoop=1;jettySize=auto;html=1;elbow=vertical;curved=1;entryX=0.017;entryY=0.179;entryDx=0;entryDy=0;entryPerimeter=0;" edge="1" parent="1">
          <mxGeometry relative="1" as="geometry">
            <mxPoint x="345" y="109" as="sourcePoint" />
            <mxPoint x="600.0500000000002" y="95.05999999999995" as="targetPoint" />
            <Array as="points">
              <mxPoint x="473" y="109" />
              <mxPoint x="473" y="95" />
            </Array>
          </mxGeometry>
        </mxCell>
        <mxCell id="YM7sdpSk1il3TAfAZ3iK-25" style="edgeStyle=orthogonalEdgeStyle;rounded=0;orthogonalLoop=1;jettySize=auto;html=1;elbow=vertical;curved=1;" edge="1" parent="1">
          <mxGeometry relative="1" as="geometry">
            <mxPoint x="346" y="138" as="sourcePoint" />
            <mxPoint x="597.5" y="140" as="targetPoint" />
            <Array as="points">
              <mxPoint x="472" y="138" />
              <mxPoint x="472" y="140" />
            </Array>
          </mxGeometry>
        </mxCell>
        <mxCell id="YM7sdpSk1il3TAfAZ3iK-26" style="edgeStyle=orthogonalEdgeStyle;rounded=0;orthogonalLoop=1;jettySize=auto;html=1;elbow=vertical;curved=1;entryX=-0.003;entryY=0.621;entryDx=0;entryDy=0;entryPerimeter=0;" edge="1" parent="1">
          <mxGeometry relative="1" as="geometry">
            <mxPoint x="348" y="170" as="sourcePoint" />
            <mxPoint x="597.0500000000002" y="156.94000000000005" as="targetPoint" />
            <Array as="points">
              <mxPoint x="473" y="170" />
              <mxPoint x="473" y="157" />
            </Array>
          </mxGeometry>
        </mxCell>
        <mxCell id="YM7sdpSk1il3TAfAZ3iK-27" style="edgeStyle=orthogonalEdgeStyle;rounded=0;orthogonalLoop=1;jettySize=auto;html=1;elbow=vertical;curved=1;entryX=-0.01;entryY=0.729;entryDx=0;entryDy=0;entryPerimeter=0;" edge="1" parent="1">
          <mxGeometry relative="1" as="geometry">
            <mxPoint x="348" y="184.05999999999995" as="sourcePoint" />
            <mxPoint x="596" y="172.05999999999995" as="targetPoint" />
            <Array as="points">
              <mxPoint x="472" y="184" />
              <mxPoint x="472" y="172" />
            </Array>
          </mxGeometry>
        </mxCell>
        <mxCell id="YM7sdpSk1il3TAfAZ3iK-28" style="edgeStyle=orthogonalEdgeStyle;rounded=0;orthogonalLoop=1;jettySize=auto;html=1;elbow=vertical;curved=1;entryX=-0.003;entryY=0.179;entryDx=0;entryDy=0;entryPerimeter=0;" edge="1" parent="1">
          <mxGeometry relative="1" as="geometry">
            <mxPoint x="364" y="243" as="sourcePoint" />
            <mxPoint x="597.0500000000002" y="95.05999999999995" as="targetPoint" />
            <Array as="points">
              <mxPoint x="500" y="243" />
              <mxPoint x="500" y="95" />
            </Array>
          </mxGeometry>
        </mxCell>
        <mxCell id="YM7sdpSk1il3TAfAZ3iK-29" style="edgeStyle=orthogonalEdgeStyle;rounded=0;orthogonalLoop=1;jettySize=auto;html=1;elbow=vertical;curved=1;entryX=0.003;entryY=0.393;entryDx=0;entryDy=0;entryPerimeter=0;" edge="1" parent="1">
          <mxGeometry relative="1" as="geometry">
            <mxPoint x="366" y="259" as="sourcePoint" />
            <mxPoint x="597.9499999999998" y="125.01999999999998" as="targetPoint" />
            <Array as="points">
              <mxPoint x="510" y="259" />
              <mxPoint x="510" y="126" />
            </Array>
          </mxGeometry>
        </mxCell>
        <mxCell id="YM7sdpSk1il3TAfAZ3iK-30" style="edgeStyle=orthogonalEdgeStyle;rounded=0;orthogonalLoop=1;jettySize=auto;html=1;elbow=vertical;curved=1;entryX=-0.003;entryY=0.729;entryDx=0;entryDy=0;entryPerimeter=0;" edge="1" parent="1">
          <mxGeometry relative="1" as="geometry">
            <mxPoint x="367" y="290" as="sourcePoint" />
            <mxPoint x="597.0500000000002" y="172.05999999999995" as="targetPoint" />
            <Array as="points">
              <mxPoint x="520" y="290" />
              <mxPoint x="520" y="172" />
            </Array>
          </mxGeometry>
        </mxCell>
        <mxCell id="YM7sdpSk1il3TAfAZ3iK-31" style="edgeStyle=orthogonalEdgeStyle;rounded=0;orthogonalLoop=1;jettySize=auto;html=1;elbow=vertical;curved=1;entryX=0.01;entryY=0.3;entryDx=0;entryDy=0;entryPerimeter=0;" edge="1" parent="1">
          <mxGeometry relative="1" as="geometry">
            <mxPoint x="346" y="122" as="sourcePoint" />
            <mxPoint x="599" y="112" as="targetPoint" />
            <Array as="points">
              <mxPoint x="473" y="122" />
              <mxPoint x="473" y="112" />
            </Array>
          </mxGeometry>
        </mxCell>
      </root>
    </mxGraphModel>
  </diagram>
</mxfile>
